<mxfile host="app.diagrams.net" agent="Mozilla/5.0 (Windows NT 10.0; Win64; x64) AppleWebKit/537.36 (KHTML, like Gecko) Chrome/131.0.0.0 Safari/537.36" version="24.8.6" pages="5">
  <diagram name="Page-1" id="2cc2dc42-3aac-f2a9-1cec-7a8b7cbee084">
    <mxGraphModel dx="1434" dy="786" grid="1" gridSize="10" guides="1" tooltips="1" connect="1" arrows="1" fold="1" page="1" pageScale="1" pageWidth="1100" pageHeight="850" background="none" math="0" shadow="0">
      <root>
        <mxCell id="0" />
        <mxCell id="1" parent="0" />
        <mxCell id="m83YUFXcnTBgg-Xw34LD-7" value="" style="rounded=0;whiteSpace=wrap;html=1;" vertex="1" parent="1">
          <mxGeometry x="340" y="50" width="430" height="610" as="geometry" />
        </mxCell>
        <mxCell id="m83YUFXcnTBgg-Xw34LD-3" value="GESTÃO DO ANIMALEC" style="rounded=0;whiteSpace=wrap;html=1;" vertex="1" parent="1">
          <mxGeometry x="340" y="50" width="430" height="60" as="geometry" />
        </mxCell>
        <mxCell id="m83YUFXcnTBgg-Xw34LD-5" value="" style="whiteSpace=wrap;html=1;aspect=fixed;" vertex="1" parent="1">
          <mxGeometry x="420" y="200" width="120" height="120" as="geometry" />
        </mxCell>
        <mxCell id="m83YUFXcnTBgg-Xw34LD-6" value="" style="whiteSpace=wrap;html=1;aspect=fixed;" vertex="1" parent="1">
          <mxGeometry x="570" y="200" width="120" height="120" as="geometry" />
        </mxCell>
        <mxCell id="m83YUFXcnTBgg-Xw34LD-8" value="" style="whiteSpace=wrap;html=1;aspect=fixed;" vertex="1" parent="1">
          <mxGeometry x="420" y="340" width="120" height="120" as="geometry" />
        </mxCell>
        <mxCell id="m83YUFXcnTBgg-Xw34LD-9" value="" style="whiteSpace=wrap;html=1;aspect=fixed;" vertex="1" parent="1">
          <mxGeometry x="570" y="340" width="120" height="120" as="geometry" />
        </mxCell>
        <mxCell id="m83YUFXcnTBgg-Xw34LD-10" value="" style="whiteSpace=wrap;html=1;aspect=fixed;" vertex="1" parent="1">
          <mxGeometry x="420" y="480" width="120" height="120" as="geometry" />
        </mxCell>
        <mxCell id="m83YUFXcnTBgg-Xw34LD-11" value="" style="whiteSpace=wrap;html=1;aspect=fixed;" vertex="1" parent="1">
          <mxGeometry x="565" y="480" width="120" height="120" as="geometry" />
        </mxCell>
        <mxCell id="eo3rcvgwL60pliEYBKVr-2" value="" style="dashed=0;outlineConnect=0;html=1;align=center;labelPosition=center;verticalLabelPosition=bottom;verticalAlign=top;shape=mxgraph.weblogos.edmodo;fillColor=#276CB0;strokeColor=none" vertex="1" parent="1">
          <mxGeometry x="440" y="503.1" width="69.2" height="73.8" as="geometry" />
        </mxCell>
        <mxCell id="eo3rcvgwL60pliEYBKVr-3" value="" style="shape=mxgraph.signs.nature.sun_3;html=1;pointerEvents=1;fillColor=#000000;strokeColor=none;verticalLabelPosition=bottom;verticalAlign=top;align=center;sketch=0;" vertex="1" parent="1">
          <mxGeometry x="540" y="130" width="30.8" height="30" as="geometry" />
        </mxCell>
        <mxCell id="eo3rcvgwL60pliEYBKVr-4" value="" style="shape=mxgraph.signs.travel.cashier;html=1;pointerEvents=1;fillColor=#000000;strokeColor=none;verticalLabelPosition=bottom;verticalAlign=top;align=center;sketch=0;" vertex="1" parent="1">
          <mxGeometry x="575.5" y="490.5" width="99" height="99" as="geometry" />
        </mxCell>
      </root>
    </mxGraphModel>
  </diagram>
  <diagram id="KN4iE8QXeoU8utze7gH8" name="Página-2">
    <mxGraphModel dx="1434" dy="786" grid="1" gridSize="10" guides="1" tooltips="1" connect="1" arrows="1" fold="1" page="1" pageScale="1" pageWidth="827" pageHeight="1169" math="0" shadow="0">
      <root>
        <mxCell id="0" />
        <mxCell id="1" parent="0" />
        <mxCell id="ks8Epd7Y-wS-xR8rpnZm-1" value="" style="rounded=0;whiteSpace=wrap;html=1;" vertex="1" parent="1">
          <mxGeometry x="40" y="80" width="710" height="610" as="geometry" />
        </mxCell>
        <mxCell id="ks8Epd7Y-wS-xR8rpnZm-15" value="" style="rounded=0;whiteSpace=wrap;html=1;" vertex="1" parent="1">
          <mxGeometry x="40" y="330" width="710" height="60" as="geometry" />
        </mxCell>
        <mxCell id="ks8Epd7Y-wS-xR8rpnZm-2" value="&lt;font style=&quot;font-size: 21px;&quot;&gt;GESTÃO DOS SPONSORS&lt;/font&gt;" style="rounded=0;whiteSpace=wrap;html=1;" vertex="1" parent="1">
          <mxGeometry x="40" y="80" width="710" height="60" as="geometry" />
        </mxCell>
        <mxCell id="ks8Epd7Y-wS-xR8rpnZm-3" value="" style="rounded=0;whiteSpace=wrap;html=1;" vertex="1" parent="1">
          <mxGeometry x="40" y="140" width="710" height="60" as="geometry" />
        </mxCell>
        <mxCell id="ks8Epd7Y-wS-xR8rpnZm-4" value="VER" style="rounded=1;whiteSpace=wrap;html=1;" vertex="1" parent="1">
          <mxGeometry x="564" y="347" width="70" height="30" as="geometry" />
        </mxCell>
        <mxCell id="ks8Epd7Y-wS-xR8rpnZm-5" value="MENU PRINCIPAL" style="rounded=1;whiteSpace=wrap;html=1;" vertex="1" parent="1">
          <mxGeometry x="211" y="220" width="120" height="30" as="geometry" />
        </mxCell>
        <mxCell id="ks8Epd7Y-wS-xR8rpnZm-6" value="" style="rounded=0;whiteSpace=wrap;html=1;" vertex="1" parent="1">
          <mxGeometry x="40" y="280" width="710" height="50" as="geometry" />
        </mxCell>
        <mxCell id="ks8Epd7Y-wS-xR8rpnZm-7" value="NOME" style="rounded=0;whiteSpace=wrap;html=1;" vertex="1" parent="1">
          <mxGeometry x="41" y="280" width="169" height="50" as="geometry" />
        </mxCell>
        <mxCell id="ks8Epd7Y-wS-xR8rpnZm-8" value="ESPÉCIE" style="rounded=0;whiteSpace=wrap;html=1;" vertex="1" parent="1">
          <mxGeometry x="210" y="280" width="120" height="50" as="geometry" />
        </mxCell>
        <mxCell id="ks8Epd7Y-wS-xR8rpnZm-9" value="AÇÕES" style="rounded=0;whiteSpace=wrap;html=1;" vertex="1" parent="1">
          <mxGeometry x="450" y="280" width="300" height="50" as="geometry" />
        </mxCell>
        <mxCell id="ks8Epd7Y-wS-xR8rpnZm-11" value="DATA CRIAÇÃO" style="rounded=0;whiteSpace=wrap;html=1;" vertex="1" parent="1">
          <mxGeometry x="330" y="280" width="120" height="50" as="geometry" />
        </mxCell>
        <mxCell id="ks8Epd7Y-wS-xR8rpnZm-12" value="ADICIONAR PATROCINADOR" style="rounded=1;whiteSpace=wrap;html=1;" vertex="1" parent="1">
          <mxGeometry x="70" y="220" width="120" height="30" as="geometry" />
        </mxCell>
        <mxCell id="ks8Epd7Y-wS-xR8rpnZm-13" value="EDITAR" style="rounded=1;whiteSpace=wrap;html=1;" vertex="1" parent="1">
          <mxGeometry x="464" y="347" width="91" height="30" as="geometry" />
        </mxCell>
        <mxCell id="ks8Epd7Y-wS-xR8rpnZm-14" value="REMOVER" style="rounded=1;whiteSpace=wrap;html=1;" vertex="1" parent="1">
          <mxGeometry x="644" y="347" width="90" height="30" as="geometry" />
        </mxCell>
        <mxCell id="ks8Epd7Y-wS-xR8rpnZm-16" value="" style="rounded=0;whiteSpace=wrap;html=1;" vertex="1" parent="1">
          <mxGeometry x="41" y="390" width="710" height="60" as="geometry" />
        </mxCell>
        <mxCell id="ks8Epd7Y-wS-xR8rpnZm-17" value="VER" style="rounded=1;whiteSpace=wrap;html=1;" vertex="1" parent="1">
          <mxGeometry x="565" y="407" width="70" height="30" as="geometry" />
        </mxCell>
        <mxCell id="ks8Epd7Y-wS-xR8rpnZm-18" value="EDITAR" style="rounded=1;whiteSpace=wrap;html=1;" vertex="1" parent="1">
          <mxGeometry x="465" y="407" width="91" height="30" as="geometry" />
        </mxCell>
        <mxCell id="ks8Epd7Y-wS-xR8rpnZm-19" value="REMOVER" style="rounded=1;whiteSpace=wrap;html=1;" vertex="1" parent="1">
          <mxGeometry x="645" y="407" width="90" height="30" as="geometry" />
        </mxCell>
        <mxCell id="ks8Epd7Y-wS-xR8rpnZm-20" value="" style="rounded=0;whiteSpace=wrap;html=1;" vertex="1" parent="1">
          <mxGeometry x="41" y="450" width="710" height="60" as="geometry" />
        </mxCell>
        <mxCell id="ks8Epd7Y-wS-xR8rpnZm-21" value="VER" style="rounded=1;whiteSpace=wrap;html=1;" vertex="1" parent="1">
          <mxGeometry x="565" y="467" width="70" height="30" as="geometry" />
        </mxCell>
        <mxCell id="ks8Epd7Y-wS-xR8rpnZm-22" value="EDITAR" style="rounded=1;whiteSpace=wrap;html=1;" vertex="1" parent="1">
          <mxGeometry x="465" y="467" width="91" height="30" as="geometry" />
        </mxCell>
        <mxCell id="ks8Epd7Y-wS-xR8rpnZm-23" value="REMOVER" style="rounded=1;whiteSpace=wrap;html=1;" vertex="1" parent="1">
          <mxGeometry x="645" y="467" width="90" height="30" as="geometry" />
        </mxCell>
        <mxCell id="ks8Epd7Y-wS-xR8rpnZm-24" value="" style="rounded=0;whiteSpace=wrap;html=1;" vertex="1" parent="1">
          <mxGeometry x="40" y="510" width="710" height="60" as="geometry" />
        </mxCell>
        <mxCell id="ks8Epd7Y-wS-xR8rpnZm-25" value="VER" style="rounded=1;whiteSpace=wrap;html=1;" vertex="1" parent="1">
          <mxGeometry x="564" y="527" width="70" height="30" as="geometry" />
        </mxCell>
        <mxCell id="ks8Epd7Y-wS-xR8rpnZm-26" value="EDITAR" style="rounded=1;whiteSpace=wrap;html=1;" vertex="1" parent="1">
          <mxGeometry x="464" y="527" width="91" height="30" as="geometry" />
        </mxCell>
        <mxCell id="ks8Epd7Y-wS-xR8rpnZm-27" value="REMOVER" style="rounded=1;whiteSpace=wrap;html=1;" vertex="1" parent="1">
          <mxGeometry x="644" y="527" width="90" height="30" as="geometry" />
        </mxCell>
      </root>
    </mxGraphModel>
  </diagram>
  <diagram id="KLCiN83aNsVbolkOGPcI" name="Página-3">
    <mxGraphModel dx="1434" dy="786" grid="1" gridSize="10" guides="1" tooltips="1" connect="1" arrows="1" fold="1" page="1" pageScale="1" pageWidth="827" pageHeight="1169" math="0" shadow="0">
      <root>
        <mxCell id="0" />
        <mxCell id="1" parent="0" />
        <mxCell id="HQD292yp1jypBV--BvA4-1" value="" style="rounded=0;whiteSpace=wrap;html=1;" vertex="1" parent="1">
          <mxGeometry x="40" y="80" width="710" height="610" as="geometry" />
        </mxCell>
        <mxCell id="HQD292yp1jypBV--BvA4-2" value="" style="rounded=0;whiteSpace=wrap;html=1;" vertex="1" parent="1">
          <mxGeometry x="40" y="330" width="710" height="60" as="geometry" />
        </mxCell>
        <mxCell id="HQD292yp1jypBV--BvA4-3" value="&lt;font style=&quot;font-size: 21px;&quot;&gt;GESTÃO DOS EXPERTS&lt;/font&gt;" style="rounded=0;whiteSpace=wrap;html=1;" vertex="1" parent="1">
          <mxGeometry x="40" y="80" width="710" height="60" as="geometry" />
        </mxCell>
        <mxCell id="HQD292yp1jypBV--BvA4-4" value="" style="rounded=0;whiteSpace=wrap;html=1;" vertex="1" parent="1">
          <mxGeometry x="40" y="140" width="710" height="60" as="geometry" />
        </mxCell>
        <mxCell id="HQD292yp1jypBV--BvA4-5" value="VER" style="rounded=1;whiteSpace=wrap;html=1;" vertex="1" parent="1">
          <mxGeometry x="564" y="347" width="70" height="30" as="geometry" />
        </mxCell>
        <mxCell id="HQD292yp1jypBV--BvA4-6" value="MENU PRINCIPAL" style="rounded=1;whiteSpace=wrap;html=1;" vertex="1" parent="1">
          <mxGeometry x="211" y="220" width="120" height="30" as="geometry" />
        </mxCell>
        <mxCell id="HQD292yp1jypBV--BvA4-7" value="" style="rounded=0;whiteSpace=wrap;html=1;" vertex="1" parent="1">
          <mxGeometry x="40" y="280" width="710" height="50" as="geometry" />
        </mxCell>
        <mxCell id="HQD292yp1jypBV--BvA4-8" value="NOME" style="rounded=0;whiteSpace=wrap;html=1;" vertex="1" parent="1">
          <mxGeometry x="41" y="280" width="169" height="50" as="geometry" />
        </mxCell>
        <mxCell id="HQD292yp1jypBV--BvA4-9" value="ESPÉCIE" style="rounded=0;whiteSpace=wrap;html=1;" vertex="1" parent="1">
          <mxGeometry x="210" y="280" width="120" height="50" as="geometry" />
        </mxCell>
        <mxCell id="HQD292yp1jypBV--BvA4-10" value="AÇÕES" style="rounded=0;whiteSpace=wrap;html=1;" vertex="1" parent="1">
          <mxGeometry x="450" y="280" width="300" height="50" as="geometry" />
        </mxCell>
        <mxCell id="HQD292yp1jypBV--BvA4-11" value="DATA CRIAÇÃO" style="rounded=0;whiteSpace=wrap;html=1;" vertex="1" parent="1">
          <mxGeometry x="330" y="280" width="120" height="50" as="geometry" />
        </mxCell>
        <mxCell id="HQD292yp1jypBV--BvA4-12" value="ADICIONAR PATROCINADOR" style="rounded=1;whiteSpace=wrap;html=1;" vertex="1" parent="1">
          <mxGeometry x="70" y="220" width="120" height="30" as="geometry" />
        </mxCell>
        <mxCell id="HQD292yp1jypBV--BvA4-13" value="EDITAR" style="rounded=1;whiteSpace=wrap;html=1;" vertex="1" parent="1">
          <mxGeometry x="464" y="347" width="91" height="30" as="geometry" />
        </mxCell>
        <mxCell id="HQD292yp1jypBV--BvA4-14" value="REMOVER" style="rounded=1;whiteSpace=wrap;html=1;" vertex="1" parent="1">
          <mxGeometry x="644" y="347" width="90" height="30" as="geometry" />
        </mxCell>
        <mxCell id="HQD292yp1jypBV--BvA4-15" value="" style="rounded=0;whiteSpace=wrap;html=1;" vertex="1" parent="1">
          <mxGeometry x="41" y="390" width="710" height="60" as="geometry" />
        </mxCell>
        <mxCell id="HQD292yp1jypBV--BvA4-16" value="VER" style="rounded=1;whiteSpace=wrap;html=1;" vertex="1" parent="1">
          <mxGeometry x="565" y="407" width="70" height="30" as="geometry" />
        </mxCell>
        <mxCell id="HQD292yp1jypBV--BvA4-17" value="EDITAR" style="rounded=1;whiteSpace=wrap;html=1;" vertex="1" parent="1">
          <mxGeometry x="465" y="407" width="91" height="30" as="geometry" />
        </mxCell>
        <mxCell id="HQD292yp1jypBV--BvA4-18" value="REMOVER" style="rounded=1;whiteSpace=wrap;html=1;" vertex="1" parent="1">
          <mxGeometry x="645" y="407" width="90" height="30" as="geometry" />
        </mxCell>
        <mxCell id="HQD292yp1jypBV--BvA4-19" value="" style="rounded=0;whiteSpace=wrap;html=1;" vertex="1" parent="1">
          <mxGeometry x="41" y="450" width="710" height="60" as="geometry" />
        </mxCell>
        <mxCell id="HQD292yp1jypBV--BvA4-20" value="VER" style="rounded=1;whiteSpace=wrap;html=1;" vertex="1" parent="1">
          <mxGeometry x="565" y="467" width="70" height="30" as="geometry" />
        </mxCell>
        <mxCell id="HQD292yp1jypBV--BvA4-21" value="EDITAR" style="rounded=1;whiteSpace=wrap;html=1;" vertex="1" parent="1">
          <mxGeometry x="465" y="467" width="91" height="30" as="geometry" />
        </mxCell>
        <mxCell id="HQD292yp1jypBV--BvA4-22" value="REMOVER" style="rounded=1;whiteSpace=wrap;html=1;" vertex="1" parent="1">
          <mxGeometry x="645" y="467" width="90" height="30" as="geometry" />
        </mxCell>
        <mxCell id="HQD292yp1jypBV--BvA4-23" value="" style="rounded=0;whiteSpace=wrap;html=1;" vertex="1" parent="1">
          <mxGeometry x="40" y="510" width="710" height="60" as="geometry" />
        </mxCell>
        <mxCell id="HQD292yp1jypBV--BvA4-24" value="VER" style="rounded=1;whiteSpace=wrap;html=1;" vertex="1" parent="1">
          <mxGeometry x="564" y="527" width="70" height="30" as="geometry" />
        </mxCell>
        <mxCell id="HQD292yp1jypBV--BvA4-25" value="EDITAR" style="rounded=1;whiteSpace=wrap;html=1;" vertex="1" parent="1">
          <mxGeometry x="464" y="527" width="91" height="30" as="geometry" />
        </mxCell>
        <mxCell id="HQD292yp1jypBV--BvA4-26" value="REMOVER" style="rounded=1;whiteSpace=wrap;html=1;" vertex="1" parent="1">
          <mxGeometry x="644" y="527" width="90" height="30" as="geometry" />
        </mxCell>
      </root>
    </mxGraphModel>
  </diagram>
  <diagram id="jbORFKT5HStu9q9VEHUt" name="Página-4">
    <mxGraphModel dx="1434" dy="786" grid="1" gridSize="10" guides="1" tooltips="1" connect="1" arrows="1" fold="1" page="1" pageScale="1" pageWidth="827" pageHeight="1169" math="0" shadow="0">
      <root>
        <mxCell id="0" />
        <mxCell id="1" parent="0" />
        <mxCell id="fSJIdTOIVTcc8c9_XNQf-1" value="" style="rounded=0;whiteSpace=wrap;html=1;strokeColor=default;" vertex="1" parent="1">
          <mxGeometry x="190" y="90" width="490" height="560" as="geometry" />
        </mxCell>
        <mxCell id="fSJIdTOIVTcc8c9_XNQf-2" value="ADICIONAR SPONSOR" style="rounded=0;whiteSpace=wrap;html=1;strokeColor=none;fontSize=24;" vertex="1" parent="1">
          <mxGeometry x="190" y="90" width="490" height="60" as="geometry" />
        </mxCell>
        <mxCell id="fSJIdTOIVTcc8c9_XNQf-13" value="" style="group;align=left;" vertex="1" connectable="0" parent="1">
          <mxGeometry x="220" y="239" width="420" height="50" as="geometry" />
        </mxCell>
        <mxCell id="fSJIdTOIVTcc8c9_XNQf-10" value="" style="rounded=1;whiteSpace=wrap;html=1;" vertex="1" parent="fSJIdTOIVTcc8c9_XNQf-13">
          <mxGeometry y="20" width="420.00000000000006" height="30" as="geometry" />
        </mxCell>
        <mxCell id="fSJIdTOIVTcc8c9_XNQf-12" value="EMAIL" style="rounded=1;whiteSpace=wrap;html=1;strokeColor=none;align=left;" vertex="1" parent="fSJIdTOIVTcc8c9_XNQf-13">
          <mxGeometry width="77.36842105263159" height="20" as="geometry" />
        </mxCell>
        <mxCell id="fSJIdTOIVTcc8c9_XNQf-14" value="" style="group;align=left;" vertex="1" connectable="0" parent="1">
          <mxGeometry x="220" y="175" width="420" height="50" as="geometry" />
        </mxCell>
        <mxCell id="fSJIdTOIVTcc8c9_XNQf-15" value="" style="rounded=1;whiteSpace=wrap;html=1;" vertex="1" parent="fSJIdTOIVTcc8c9_XNQf-14">
          <mxGeometry y="20" width="420.00000000000006" height="30" as="geometry" />
        </mxCell>
        <mxCell id="fSJIdTOIVTcc8c9_XNQf-16" value="NOME" style="rounded=1;whiteSpace=wrap;html=1;strokeColor=none;align=left;" vertex="1" parent="fSJIdTOIVTcc8c9_XNQf-14">
          <mxGeometry width="77.36842105263159" height="20" as="geometry" />
        </mxCell>
        <mxCell id="fSJIdTOIVTcc8c9_XNQf-17" value="" style="group" vertex="1" connectable="0" parent="1">
          <mxGeometry x="220" y="307" width="420" height="50" as="geometry" />
        </mxCell>
        <mxCell id="fSJIdTOIVTcc8c9_XNQf-18" value="" style="rounded=1;whiteSpace=wrap;html=1;" vertex="1" parent="fSJIdTOIVTcc8c9_XNQf-17">
          <mxGeometry y="20" width="420.00000000000006" height="30" as="geometry" />
        </mxCell>
        <mxCell id="fSJIdTOIVTcc8c9_XNQf-19" value="TELEFONE" style="rounded=1;whiteSpace=wrap;html=1;strokeColor=none;align=left;" vertex="1" parent="fSJIdTOIVTcc8c9_XNQf-17">
          <mxGeometry width="77.36842105263159" height="20" as="geometry" />
        </mxCell>
        <mxCell id="fSJIdTOIVTcc8c9_XNQf-20" value="" style="group" vertex="1" connectable="0" parent="1">
          <mxGeometry x="220" y="375" width="420" height="50" as="geometry" />
        </mxCell>
        <mxCell id="fSJIdTOIVTcc8c9_XNQf-21" value="" style="rounded=1;whiteSpace=wrap;html=1;" vertex="1" parent="fSJIdTOIVTcc8c9_XNQf-20">
          <mxGeometry y="20" width="420.00000000000006" height="30" as="geometry" />
        </mxCell>
        <mxCell id="fSJIdTOIVTcc8c9_XNQf-22" value="ESPÉCIE" style="rounded=1;whiteSpace=wrap;html=1;strokeColor=none;align=left;" vertex="1" parent="fSJIdTOIVTcc8c9_XNQf-20">
          <mxGeometry width="77.36842105263159" height="20" as="geometry" />
        </mxCell>
        <mxCell id="fSJIdTOIVTcc8c9_XNQf-23" value="" style="group" vertex="1" connectable="0" parent="1">
          <mxGeometry x="220" y="444" width="420" height="50" as="geometry" />
        </mxCell>
        <mxCell id="fSJIdTOIVTcc8c9_XNQf-24" value="" style="rounded=1;whiteSpace=wrap;html=1;" vertex="1" parent="fSJIdTOIVTcc8c9_XNQf-23">
          <mxGeometry y="20" width="420.00000000000006" height="30" as="geometry" />
        </mxCell>
        <mxCell id="fSJIdTOIVTcc8c9_XNQf-25" value="WEBSITE" style="rounded=1;whiteSpace=wrap;html=1;strokeColor=none;align=left;" vertex="1" parent="fSJIdTOIVTcc8c9_XNQf-23">
          <mxGeometry width="77.36842105263159" height="20" as="geometry" />
        </mxCell>
        <mxCell id="fSJIdTOIVTcc8c9_XNQf-27" value="" style="rounded=1;whiteSpace=wrap;html=1;" vertex="1" parent="1">
          <mxGeometry x="220" y="532" width="420" height="38" as="geometry" />
        </mxCell>
        <mxCell id="fSJIdTOIVTcc8c9_XNQf-28" value="LOGÓTIPO" style="rounded=1;whiteSpace=wrap;html=1;strokeColor=none;" vertex="1" parent="1">
          <mxGeometry x="220" y="512" width="70" height="20" as="geometry" />
        </mxCell>
        <mxCell id="fSJIdTOIVTcc8c9_XNQf-30" value="CANCELAR" style="rounded=1;whiteSpace=wrap;html=1;" vertex="1" parent="1">
          <mxGeometry x="440" y="600" width="196" height="30" as="geometry" />
        </mxCell>
        <mxCell id="fSJIdTOIVTcc8c9_XNQf-32" value="ADICIONAR" style="rounded=1;whiteSpace=wrap;html=1;" vertex="1" parent="1">
          <mxGeometry x="220" y="600" width="200" height="30" as="geometry" />
        </mxCell>
        <mxCell id="fSJIdTOIVTcc8c9_XNQf-33" value="Choose file" style="rounded=1;whiteSpace=wrap;html=1;" vertex="1" parent="1">
          <mxGeometry x="231" y="537.5" width="106" height="26" as="geometry" />
        </mxCell>
        <mxCell id="fSJIdTOIVTcc8c9_XNQf-35" value="No file chosen" style="rounded=1;whiteSpace=wrap;html=1;strokeColor=none;align=left;" vertex="1" parent="1">
          <mxGeometry x="340" y="537.5" width="106" height="26" as="geometry" />
        </mxCell>
      </root>
    </mxGraphModel>
  </diagram>
  <diagram id="6sC6IRVvlgcxxaxpOn3a" name="Página-5">
    <mxGraphModel dx="1434" dy="786" grid="1" gridSize="10" guides="1" tooltips="1" connect="1" arrows="1" fold="1" page="1" pageScale="1" pageWidth="827" pageHeight="1169" math="0" shadow="0">
      <root>
        <mxCell id="0" />
        <mxCell id="1" parent="0" />
        <mxCell id="ErUGHkwHAz6ykhK31D-9-1" value="" style="rounded=0;whiteSpace=wrap;html=1;strokeColor=default;" vertex="1" parent="1">
          <mxGeometry x="190" y="90" width="490" height="420" as="geometry" />
        </mxCell>
        <mxCell id="ErUGHkwHAz6ykhK31D-9-2" value="ADICIONAR EXPERT" style="rounded=0;whiteSpace=wrap;html=1;strokeColor=none;fontSize=24;" vertex="1" parent="1">
          <mxGeometry x="190" y="90" width="490" height="60" as="geometry" />
        </mxCell>
        <mxCell id="ErUGHkwHAz6ykhK31D-9-3" value="" style="group;align=left;" vertex="1" connectable="0" parent="1">
          <mxGeometry x="220" y="239" width="420" height="50" as="geometry" />
        </mxCell>
        <mxCell id="ErUGHkwHAz6ykhK31D-9-4" value="" style="rounded=1;whiteSpace=wrap;html=1;" vertex="1" parent="ErUGHkwHAz6ykhK31D-9-3">
          <mxGeometry y="20" width="420.00000000000006" height="30" as="geometry" />
        </mxCell>
        <mxCell id="ErUGHkwHAz6ykhK31D-9-5" value="EMAIL" style="rounded=1;whiteSpace=wrap;html=1;strokeColor=none;align=left;" vertex="1" parent="ErUGHkwHAz6ykhK31D-9-3">
          <mxGeometry width="77.36842105263159" height="20" as="geometry" />
        </mxCell>
        <mxCell id="ErUGHkwHAz6ykhK31D-9-6" value="" style="group;align=left;" vertex="1" connectable="0" parent="1">
          <mxGeometry x="220" y="175" width="420" height="50" as="geometry" />
        </mxCell>
        <mxCell id="ErUGHkwHAz6ykhK31D-9-7" value="" style="rounded=1;whiteSpace=wrap;html=1;" vertex="1" parent="ErUGHkwHAz6ykhK31D-9-6">
          <mxGeometry y="20" width="420.00000000000006" height="30" as="geometry" />
        </mxCell>
        <mxCell id="ErUGHkwHAz6ykhK31D-9-8" value="NOME" style="rounded=1;whiteSpace=wrap;html=1;strokeColor=none;align=left;" vertex="1" parent="ErUGHkwHAz6ykhK31D-9-6">
          <mxGeometry width="77.36842105263159" height="20" as="geometry" />
        </mxCell>
        <mxCell id="ErUGHkwHAz6ykhK31D-9-9" value="" style="group" vertex="1" connectable="0" parent="1">
          <mxGeometry x="220" y="307" width="420" height="50" as="geometry" />
        </mxCell>
        <mxCell id="ErUGHkwHAz6ykhK31D-9-10" value="" style="rounded=1;whiteSpace=wrap;html=1;" vertex="1" parent="ErUGHkwHAz6ykhK31D-9-9">
          <mxGeometry y="20" width="420.00000000000006" height="30" as="geometry" />
        </mxCell>
        <mxCell id="ErUGHkwHAz6ykhK31D-9-11" value="TELEFONE" style="rounded=1;whiteSpace=wrap;html=1;strokeColor=none;align=left;" vertex="1" parent="ErUGHkwHAz6ykhK31D-9-9">
          <mxGeometry width="77.36842105263159" height="20" as="geometry" />
        </mxCell>
        <mxCell id="ErUGHkwHAz6ykhK31D-9-12" value="" style="group" vertex="1" connectable="0" parent="1">
          <mxGeometry x="220" y="375" width="420" height="50" as="geometry" />
        </mxCell>
        <mxCell id="ErUGHkwHAz6ykhK31D-9-13" value="" style="rounded=1;whiteSpace=wrap;html=1;" vertex="1" parent="ErUGHkwHAz6ykhK31D-9-12">
          <mxGeometry y="20" width="420.00000000000006" height="30" as="geometry" />
        </mxCell>
        <mxCell id="ErUGHkwHAz6ykhK31D-9-14" value="ESPÉCIE" style="rounded=1;whiteSpace=wrap;html=1;strokeColor=none;align=left;" vertex="1" parent="ErUGHkwHAz6ykhK31D-9-12">
          <mxGeometry width="77.36842105263159" height="20" as="geometry" />
        </mxCell>
        <mxCell id="ErUGHkwHAz6ykhK31D-9-20" value="CANCELAR" style="rounded=1;whiteSpace=wrap;html=1;" vertex="1" parent="1">
          <mxGeometry x="440" y="460" width="196" height="30" as="geometry" />
        </mxCell>
        <mxCell id="ErUGHkwHAz6ykhK31D-9-21" value="ADICIONAR" style="rounded=1;whiteSpace=wrap;html=1;" vertex="1" parent="1">
          <mxGeometry x="220" y="460" width="200" height="30" as="geometry" />
        </mxCell>
      </root>
    </mxGraphModel>
  </diagram>
</mxfile>
